
        <svg xmlns="http://www.w3.org/2000/svg" xmlns:xlink="http://www.w3.org/1999/xlink" version="1.1" width="3192" 
        height="3192" viewBox="0 0 3192 3192">
			
			<g transform="scale(9.6) translate(10, 10)">
				<defs id="SvgjsDefs2269"><linearGradient id="SvgjsLinearGradient2274"><stop id="SvgjsStop2275" stop-color="#147d6c" offset="0"></stop><stop id="SvgjsStop2276" stop-color="#1effff" offset="1"></stop></linearGradient></defs><g id="SvgjsG2270" featureKey="rootContainer" transform="matrix(6.25,0,0,6.25,0,0)" fill="url(#SvgjsLinearGradient2274)"><circle cx="25" cy="25" r="25"></circle></g><g id="SvgjsG2271" featureKey="nameFeature-0" transform="matrix(4.469773265710871,0,0,4.469773265710871,51.53022247158117,40.36272081146954)" fill="#ffffff"><path d="M12.4 12 l8.16 0 l0 7.56 l-0.24 0 c-1.08 -4.2 -4.92 -7.32 -9.48 -7.32 l-0.4 0 l0 13.64 c2.92 0 5.36 -2 6.08 -4.68 l0.24 0 l0 9.6 l-0.24 0 c-0.72 -2.68 -3.16 -4.68 -6.08 -4.68 l0 9.6 l0 1.64 c0 1.32 1.08 2.4 2.44 2.4 l0 0.24 l-11.88 0 l0 -0.24 c1.32 0 2.4 -1.08 2.4 -2.4 l0 -22.72 c0 -1.32 -1.08 -2.4 -2.4 -2.4 l0 -0.24 l11.4 0 z M37.584999999999994 12 l8.16 0 l0 7.56 l-0.24 0 c-1.08 -4.2 -3.72 -7.32 -8.24 -7.32 l0 23.48 l0 1.64 c0 1.32 1.08 2.4 2.4 2.4 l0 0.24 l-11.88 0 l0 -0.24 c1.36 0 2.4 -1.08 2.4 -2.4 l0 -1.64 l0 -23.48 c-4.52 0 -7.16 3.12 -8.24 7.32 l-0.24 0 l0 -7.56 l8.16 0 l7.72 0 z"></path></g>
			</g>
		</svg>
	